<?xml version="1.0" standalone="no"?>
<!DOCTYPE svg PUBLIC "-//W3C//DTD SVG 20010904//EN"
 "http://www.w3.org/TR/2001/REC-SVG-20010904/DTD/svg10.dtd">
<svg version="1.0" xmlns="http://www.w3.org/2000/svg"
 width="486.000000pt" height="486.000000pt" viewBox="0 0 486.000000 486.000000"
 preserveAspectRatio="xMidYMid meet">
<metadata>
Created by potrace 1.11, written by Peter Selinger 2001-2013
</metadata>
<g transform="translate(0.000000,486.000000) scale(0.100000,-0.100000)"
fill="#000000" stroke="none">
<path d="M1730 4320 c-193 -42 -234 -51 -445 -96 -121 -25 -231 -48 -245 -50
-14 -3 -74 -16 -135 -29 -60 -13 -121 -26 -135 -29 -81 -15 -344 -70 -460 -95
-74 -16 -153 -32 -175 -34 -54 -8 -90 -22 -115 -47 -17 -17 -20 -33 -20 -95 0
-81 6 -110 335 -1740 97 -478 179 -887 182 -908 7 -46 56 -102 97 -113 19 -4
153 20 420 76 l391 83 80 -11 c44 -7 96 -14 115 -18 148 -25 572 -96 600 -100
135 -20 192 -36 290 -85 58 -28 155 -75 215 -104 61 -29 200 -96 310 -150 110
-53 274 -133 365 -177 179 -87 220 -97 268 -61 34 24 61 78 232 453 29 63 77
166 106 229 30 62 54 115 54 116 0 2 25 57 56 122 31 65 78 165 104 223 57
125 95 206 190 411 40 85 83 179 97 209 28 61 76 163 133 285 20 44 46 100 58
125 11 25 38 83 60 130 82 175 93 204 94 241 1 61 -30 93 -145 148 -56 27
-205 99 -332 161 -126 62 -270 132 -320 155 -49 23 -206 99 -348 169 -142 69
-262 126 -266 126 -4 0 -26 16 -48 34 -23 21 -60 40 -89 47 -27 7 -65 20 -84
29 -44 22 -66 26 -110 17 -19 -4 -62 -2 -95 3 -33 6 -100 18 -150 26 -49 8
-101 17 -115 19 -14 2 -43 7 -65 10 -22 3 -62 10 -90 15 -27 5 -65 12 -82 15
-77 12 -156 25 -240 40 -16 3 -46 7 -68 11 -22 3 -82 13 -134 22 l-94 17 -19
70 c-18 67 -51 114 -82 116 -6 0 -22 2 -36 4 -14 2 -63 -5 -110 -15z"/>
</g>
</svg>
